<mxfile host="Electron" modified="2023-04-28T21:11:12.148Z" agent="Mozilla/5.0 (Windows NT 10.0; Win64; x64) AppleWebKit/537.36 (KHTML, like Gecko) draw.io/21.2.1 Chrome/112.0.5615.87 Electron/24.1.2 Safari/537.36" etag="E1C4669eD79q0VYBlXsv" version="21.2.1" type="device">
  <diagram name="Stránka-1" id="6MTOhlfxPXDXK-Cq6dDo">
    <mxGraphModel dx="1509" dy="3218" grid="1" gridSize="10" guides="1" tooltips="1" connect="1" arrows="1" fold="1" page="1" pageScale="1" pageWidth="827" pageHeight="1169" math="0" shadow="0">
      <root>
        <mxCell id="0" />
        <mxCell id="1" parent="0" />
        <mxCell id="8sRT1AQJl7CtKDQc5Smz-8" value="Testovací knihovna" style="swimlane;whiteSpace=wrap;html=1;" vertex="1" parent="1">
          <mxGeometry x="270" y="-2338" width="200" height="808" as="geometry" />
        </mxCell>
        <mxCell id="8sRT1AQJl7CtKDQc5Smz-54" value="" style="rounded=0;whiteSpace=wrap;html=1;fillColor=none;" vertex="1" parent="8sRT1AQJl7CtKDQc5Smz-8">
          <mxGeometry x="-190" y="488" width="370" height="132" as="geometry" />
        </mxCell>
        <mxCell id="8sRT1AQJl7CtKDQc5Smz-11" value="Inicializace testovací knihovny" style="rounded=0;whiteSpace=wrap;html=1;" vertex="1" parent="8sRT1AQJl7CtKDQc5Smz-8">
          <mxGeometry x="42.5" y="68" width="120" height="60" as="geometry" />
        </mxCell>
        <mxCell id="8sRT1AQJl7CtKDQc5Smz-39" style="edgeStyle=orthogonalEdgeStyle;rounded=0;orthogonalLoop=1;jettySize=auto;html=1;entryX=0.5;entryY=0;entryDx=0;entryDy=0;" edge="1" parent="8sRT1AQJl7CtKDQc5Smz-8" source="8sRT1AQJl7CtKDQc5Smz-18" target="8sRT1AQJl7CtKDQc5Smz-38">
          <mxGeometry relative="1" as="geometry" />
        </mxCell>
        <mxCell id="8sRT1AQJl7CtKDQc5Smz-18" value="Vytvoření virtualizovaného prostředí" style="rounded=0;whiteSpace=wrap;html=1;" vertex="1" parent="8sRT1AQJl7CtKDQc5Smz-8">
          <mxGeometry x="37.5" y="168" width="120" height="212" as="geometry" />
        </mxCell>
        <mxCell id="8sRT1AQJl7CtKDQc5Smz-38" value="Inicializace testovací služby" style="rounded=0;whiteSpace=wrap;html=1;" vertex="1" parent="8sRT1AQJl7CtKDQc5Smz-8">
          <mxGeometry x="37.5" y="408" width="120" height="60" as="geometry" />
        </mxCell>
        <mxCell id="8sRT1AQJl7CtKDQc5Smz-61" value="Ukončení všech služeb testovací knihovny" style="rounded=0;whiteSpace=wrap;html=1;" vertex="1" parent="8sRT1AQJl7CtKDQc5Smz-8">
          <mxGeometry x="37.5" y="658" width="120" height="60" as="geometry" />
        </mxCell>
        <mxCell id="8sRT1AQJl7CtKDQc5Smz-43" value="Spuštění a vyhodnocení&lt;br&gt;&amp;nbsp;testu prostřednictvým testovací služby" style="rounded=0;whiteSpace=wrap;html=1;" vertex="1" parent="8sRT1AQJl7CtKDQc5Smz-8">
          <mxGeometry x="37.5" y="538" width="120" height="60" as="geometry" />
        </mxCell>
        <mxCell id="8sRT1AQJl7CtKDQc5Smz-7" value="MSTest" style="swimlane;whiteSpace=wrap;html=1;startSize=23;" vertex="1" parent="1">
          <mxGeometry x="70" y="-2338" width="200" height="808" as="geometry" />
        </mxCell>
        <mxCell id="8sRT1AQJl7CtKDQc5Smz-17" style="edgeStyle=orthogonalEdgeStyle;rounded=0;orthogonalLoop=1;jettySize=auto;html=1;entryX=0.5;entryY=0;entryDx=0;entryDy=0;" edge="1" parent="8sRT1AQJl7CtKDQc5Smz-7" source="8sRT1AQJl7CtKDQc5Smz-10" target="8sRT1AQJl7CtKDQc5Smz-15">
          <mxGeometry relative="1" as="geometry" />
        </mxCell>
        <mxCell id="8sRT1AQJl7CtKDQc5Smz-10" value="Inicializace pomocí metody s atributem&amp;nbsp;&lt;br&gt;&lt;i&gt;AssemblyInitialize&lt;/i&gt;&amp;nbsp;" style="rounded=0;whiteSpace=wrap;html=1;" vertex="1" parent="8sRT1AQJl7CtKDQc5Smz-7">
          <mxGeometry x="20" y="68" width="160" height="60" as="geometry" />
        </mxCell>
        <mxCell id="8sRT1AQJl7CtKDQc5Smz-42" style="edgeStyle=orthogonalEdgeStyle;rounded=0;orthogonalLoop=1;jettySize=auto;html=1;" edge="1" parent="8sRT1AQJl7CtKDQc5Smz-7" source="8sRT1AQJl7CtKDQc5Smz-15" target="8sRT1AQJl7CtKDQc5Smz-41">
          <mxGeometry relative="1" as="geometry" />
        </mxCell>
        <mxCell id="8sRT1AQJl7CtKDQc5Smz-15" value="Inicializace testovací třídy pomocí metody s atributem&amp;nbsp;&lt;i&gt;ClassInitialize&lt;/i&gt;" style="rounded=0;whiteSpace=wrap;html=1;" vertex="1" parent="8sRT1AQJl7CtKDQc5Smz-7">
          <mxGeometry x="20" y="168" width="160" height="302" as="geometry" />
        </mxCell>
        <mxCell id="8sRT1AQJl7CtKDQc5Smz-35" style="edgeStyle=orthogonalEdgeStyle;rounded=0;orthogonalLoop=1;jettySize=auto;html=1;entryX=0.5;entryY=0;entryDx=0;entryDy=0;" edge="1" parent="8sRT1AQJl7CtKDQc5Smz-7" source="8sRT1AQJl7CtKDQc5Smz-31" target="8sRT1AQJl7CtKDQc5Smz-10">
          <mxGeometry relative="1" as="geometry" />
        </mxCell>
        <mxCell id="8sRT1AQJl7CtKDQc5Smz-31" value="" style="ellipse;whiteSpace=wrap;html=1;aspect=fixed;fillColor=#000000;" vertex="1" parent="8sRT1AQJl7CtKDQc5Smz-7">
          <mxGeometry x="89" y="28" width="22" height="22" as="geometry" />
        </mxCell>
        <mxCell id="8sRT1AQJl7CtKDQc5Smz-48" style="edgeStyle=orthogonalEdgeStyle;rounded=0;orthogonalLoop=1;jettySize=auto;html=1;entryX=0.5;entryY=0;entryDx=0;entryDy=0;" edge="1" parent="8sRT1AQJl7CtKDQc5Smz-7" source="8sRT1AQJl7CtKDQc5Smz-41" target="8sRT1AQJl7CtKDQc5Smz-47">
          <mxGeometry relative="1" as="geometry" />
        </mxCell>
        <mxCell id="8sRT1AQJl7CtKDQc5Smz-41" value="Spuštění testovací metody" style="rounded=0;whiteSpace=wrap;html=1;" vertex="1" parent="8sRT1AQJl7CtKDQc5Smz-7">
          <mxGeometry x="20" y="538" width="160" height="60" as="geometry" />
        </mxCell>
        <mxCell id="8sRT1AQJl7CtKDQc5Smz-69" style="edgeStyle=orthogonalEdgeStyle;rounded=0;orthogonalLoop=1;jettySize=auto;html=1;entryX=0.5;entryY=0;entryDx=0;entryDy=0;" edge="1" parent="8sRT1AQJl7CtKDQc5Smz-7" source="8sRT1AQJl7CtKDQc5Smz-47" target="8sRT1AQJl7CtKDQc5Smz-68">
          <mxGeometry relative="1" as="geometry" />
        </mxCell>
        <mxCell id="8sRT1AQJl7CtKDQc5Smz-47" value="Úklid po dokončení všech testů pomocí funkce s atributem&amp;nbsp;&lt;i&gt;AssemblyCleanup&lt;/i&gt;" style="rounded=0;whiteSpace=wrap;html=1;" vertex="1" parent="8sRT1AQJl7CtKDQc5Smz-7">
          <mxGeometry x="20" y="658" width="160" height="60" as="geometry" />
        </mxCell>
        <mxCell id="8sRT1AQJl7CtKDQc5Smz-68" value="" style="ellipse;html=1;shape=endState;fillColor=#000000;strokeColor=#000000;" vertex="1" parent="8sRT1AQJl7CtKDQc5Smz-7">
          <mxGeometry x="85" y="768" width="30" height="30" as="geometry" />
        </mxCell>
        <mxCell id="8sRT1AQJl7CtKDQc5Smz-55" value="pro všechny testovací metody v třídě" style="rounded=0;whiteSpace=wrap;html=1;fillColor=#f5f5f5;fontColor=#333333;strokeColor=#000000;" vertex="1" parent="8sRT1AQJl7CtKDQc5Smz-7">
          <mxGeometry x="170" y="488" width="210" height="22" as="geometry" />
        </mxCell>
        <mxCell id="8sRT1AQJl7CtKDQc5Smz-9" value="Docker" style="swimlane;whiteSpace=wrap;html=1;" vertex="1" parent="1">
          <mxGeometry x="470" y="-2338" width="200" height="808" as="geometry" />
        </mxCell>
        <mxCell id="8sRT1AQJl7CtKDQc5Smz-21" value="Vytvoření sítí" style="rounded=0;whiteSpace=wrap;html=1;" vertex="1" parent="8sRT1AQJl7CtKDQc5Smz-9">
          <mxGeometry x="40" y="158" width="120" height="60" as="geometry" />
        </mxCell>
        <mxCell id="8sRT1AQJl7CtKDQc5Smz-22" value="Vytvoření kontejnerů" style="rounded=0;whiteSpace=wrap;html=1;" vertex="1" parent="8sRT1AQJl7CtKDQc5Smz-9">
          <mxGeometry x="40" y="238" width="120" height="60" as="geometry" />
        </mxCell>
        <mxCell id="8sRT1AQJl7CtKDQc5Smz-23" value="Spuštění kontejnerů" style="rounded=0;whiteSpace=wrap;html=1;" vertex="1" parent="8sRT1AQJl7CtKDQc5Smz-9">
          <mxGeometry x="40" y="318" width="120" height="60" as="geometry" />
        </mxCell>
        <mxCell id="8sRT1AQJl7CtKDQc5Smz-62" value="Destrukce vytvořených kontejnerů a sítí" style="rounded=0;whiteSpace=wrap;html=1;" vertex="1" parent="8sRT1AQJl7CtKDQc5Smz-9">
          <mxGeometry x="40" y="658" width="120" height="60" as="geometry" />
        </mxCell>
        <mxCell id="8sRT1AQJl7CtKDQc5Smz-13" style="edgeStyle=orthogonalEdgeStyle;rounded=0;orthogonalLoop=1;jettySize=auto;html=1;endArrow=classic;endFill=1;dashed=1;" edge="1" parent="1" source="8sRT1AQJl7CtKDQc5Smz-11" target="8sRT1AQJl7CtKDQc5Smz-10">
          <mxGeometry relative="1" as="geometry">
            <Array as="points">
              <mxPoint x="280" y="-2220" />
              <mxPoint x="280" y="-2220" />
            </Array>
          </mxGeometry>
        </mxCell>
        <mxCell id="8sRT1AQJl7CtKDQc5Smz-19" style="edgeStyle=orthogonalEdgeStyle;rounded=0;orthogonalLoop=1;jettySize=auto;html=1;" edge="1" parent="1" source="8sRT1AQJl7CtKDQc5Smz-15" target="8sRT1AQJl7CtKDQc5Smz-18">
          <mxGeometry relative="1" as="geometry">
            <Array as="points">
              <mxPoint x="300" y="-2160" />
              <mxPoint x="300" y="-2160" />
            </Array>
          </mxGeometry>
        </mxCell>
        <mxCell id="8sRT1AQJl7CtKDQc5Smz-24" style="edgeStyle=orthogonalEdgeStyle;rounded=0;orthogonalLoop=1;jettySize=auto;html=1;entryX=0;entryY=0.25;entryDx=0;entryDy=0;exitX=0.996;exitY=0.024;exitDx=0;exitDy=0;exitPerimeter=0;" edge="1" parent="1" source="8sRT1AQJl7CtKDQc5Smz-18" target="8sRT1AQJl7CtKDQc5Smz-21">
          <mxGeometry relative="1" as="geometry" />
        </mxCell>
        <mxCell id="8sRT1AQJl7CtKDQc5Smz-25" style="edgeStyle=orthogonalEdgeStyle;rounded=0;orthogonalLoop=1;jettySize=auto;html=1;endArrow=classic;endFill=1;dashed=1;" edge="1" parent="1" source="8sRT1AQJl7CtKDQc5Smz-21">
          <mxGeometry relative="1" as="geometry">
            <mxPoint x="426" y="-2130" as="targetPoint" />
            <Array as="points">
              <mxPoint x="426" y="-2130" />
            </Array>
          </mxGeometry>
        </mxCell>
        <mxCell id="8sRT1AQJl7CtKDQc5Smz-26" style="edgeStyle=orthogonalEdgeStyle;rounded=0;orthogonalLoop=1;jettySize=auto;html=1;entryX=0;entryY=0.25;entryDx=0;entryDy=0;exitX=1.014;exitY=0.401;exitDx=0;exitDy=0;exitPerimeter=0;" edge="1" parent="1" source="8sRT1AQJl7CtKDQc5Smz-18" target="8sRT1AQJl7CtKDQc5Smz-22">
          <mxGeometry relative="1" as="geometry" />
        </mxCell>
        <mxCell id="8sRT1AQJl7CtKDQc5Smz-27" style="edgeStyle=orthogonalEdgeStyle;rounded=0;orthogonalLoop=1;jettySize=auto;html=1;entryX=1.008;entryY=0.559;entryDx=0;entryDy=0;entryPerimeter=0;dashed=1;" edge="1" parent="1" source="8sRT1AQJl7CtKDQc5Smz-22" target="8sRT1AQJl7CtKDQc5Smz-18">
          <mxGeometry relative="1" as="geometry">
            <Array as="points">
              <mxPoint x="548" y="-2051" />
            </Array>
          </mxGeometry>
        </mxCell>
        <mxCell id="8sRT1AQJl7CtKDQc5Smz-28" style="edgeStyle=orthogonalEdgeStyle;rounded=0;orthogonalLoop=1;jettySize=auto;html=1;entryX=0;entryY=0.25;entryDx=0;entryDy=0;" edge="1" parent="1" source="8sRT1AQJl7CtKDQc5Smz-18" target="8sRT1AQJl7CtKDQc5Smz-23">
          <mxGeometry relative="1" as="geometry">
            <Array as="points">
              <mxPoint x="510" y="-2005" />
              <mxPoint x="510" y="-2005" />
            </Array>
          </mxGeometry>
        </mxCell>
        <mxCell id="8sRT1AQJl7CtKDQc5Smz-29" style="edgeStyle=orthogonalEdgeStyle;rounded=0;orthogonalLoop=1;jettySize=auto;html=1;entryX=0.99;entryY=0.954;entryDx=0;entryDy=0;entryPerimeter=0;dashed=1;" edge="1" parent="1" source="8sRT1AQJl7CtKDQc5Smz-23" target="8sRT1AQJl7CtKDQc5Smz-18">
          <mxGeometry relative="1" as="geometry">
            <Array as="points">
              <mxPoint x="590" y="-1968" />
              <mxPoint x="590" y="-1968" />
            </Array>
          </mxGeometry>
        </mxCell>
        <mxCell id="8sRT1AQJl7CtKDQc5Smz-40" style="edgeStyle=orthogonalEdgeStyle;rounded=0;orthogonalLoop=1;jettySize=auto;html=1;entryX=1.004;entryY=0.973;entryDx=0;entryDy=0;entryPerimeter=0;dashed=1;" edge="1" parent="1" source="8sRT1AQJl7CtKDQc5Smz-38" target="8sRT1AQJl7CtKDQc5Smz-15">
          <mxGeometry relative="1" as="geometry">
            <Array as="points">
              <mxPoint x="340" y="-1876" />
              <mxPoint x="340" y="-1876" />
            </Array>
          </mxGeometry>
        </mxCell>
        <mxCell id="8sRT1AQJl7CtKDQc5Smz-59" style="edgeStyle=orthogonalEdgeStyle;rounded=0;orthogonalLoop=1;jettySize=auto;html=1;entryX=1;entryY=0.75;entryDx=0;entryDy=0;dashed=1;" edge="1" parent="1" source="8sRT1AQJl7CtKDQc5Smz-43" target="8sRT1AQJl7CtKDQc5Smz-41">
          <mxGeometry relative="1" as="geometry">
            <Array as="points">
              <mxPoint x="330" y="-1755" />
              <mxPoint x="330" y="-1755" />
            </Array>
          </mxGeometry>
        </mxCell>
        <mxCell id="8sRT1AQJl7CtKDQc5Smz-63" style="edgeStyle=orthogonalEdgeStyle;rounded=0;orthogonalLoop=1;jettySize=auto;html=1;" edge="1" parent="1" source="8sRT1AQJl7CtKDQc5Smz-61" target="8sRT1AQJl7CtKDQc5Smz-62">
          <mxGeometry relative="1" as="geometry">
            <Array as="points">
              <mxPoint x="540" y="-1670" />
              <mxPoint x="540" y="-1670" />
            </Array>
          </mxGeometry>
        </mxCell>
        <mxCell id="8sRT1AQJl7CtKDQc5Smz-64" style="edgeStyle=orthogonalEdgeStyle;rounded=0;orthogonalLoop=1;jettySize=auto;html=1;entryX=1;entryY=0.75;entryDx=0;entryDy=0;dashed=1;" edge="1" parent="1" source="8sRT1AQJl7CtKDQc5Smz-62" target="8sRT1AQJl7CtKDQc5Smz-61">
          <mxGeometry relative="1" as="geometry">
            <Array as="points">
              <mxPoint x="600" y="-1635" />
              <mxPoint x="600" y="-1635" />
            </Array>
          </mxGeometry>
        </mxCell>
        <mxCell id="8sRT1AQJl7CtKDQc5Smz-65" style="edgeStyle=orthogonalEdgeStyle;rounded=0;orthogonalLoop=1;jettySize=auto;html=1;entryX=0;entryY=0.25;entryDx=0;entryDy=0;" edge="1" parent="1" source="8sRT1AQJl7CtKDQc5Smz-47" target="8sRT1AQJl7CtKDQc5Smz-61">
          <mxGeometry relative="1" as="geometry">
            <Array as="points">
              <mxPoint x="270" y="-1665" />
              <mxPoint x="270" y="-1665" />
            </Array>
          </mxGeometry>
        </mxCell>
        <mxCell id="8sRT1AQJl7CtKDQc5Smz-66" style="edgeStyle=orthogonalEdgeStyle;rounded=0;orthogonalLoop=1;jettySize=auto;html=1;entryX=1;entryY=0.75;entryDx=0;entryDy=0;dashed=1;" edge="1" parent="1" source="8sRT1AQJl7CtKDQc5Smz-61" target="8sRT1AQJl7CtKDQc5Smz-47">
          <mxGeometry relative="1" as="geometry">
            <Array as="points">
              <mxPoint x="330" y="-1635" />
              <mxPoint x="330" y="-1635" />
            </Array>
          </mxGeometry>
        </mxCell>
        <mxCell id="8sRT1AQJl7CtKDQc5Smz-73" value="" style="endArrow=classic;html=1;rounded=0;exitX=1;exitY=0.25;exitDx=0;exitDy=0;entryX=0;entryY=0.25;entryDx=0;entryDy=0;" edge="1" parent="1" source="8sRT1AQJl7CtKDQc5Smz-41" target="8sRT1AQJl7CtKDQc5Smz-43">
          <mxGeometry width="50" height="50" relative="1" as="geometry">
            <mxPoint x="270" y="-1740" as="sourcePoint" />
            <mxPoint x="320" y="-1790" as="targetPoint" />
          </mxGeometry>
        </mxCell>
        <mxCell id="8sRT1AQJl7CtKDQc5Smz-74" style="edgeStyle=orthogonalEdgeStyle;rounded=0;orthogonalLoop=1;jettySize=auto;html=1;" edge="1" parent="1" source="8sRT1AQJl7CtKDQc5Smz-10" target="8sRT1AQJl7CtKDQc5Smz-11">
          <mxGeometry relative="1" as="geometry">
            <Array as="points">
              <mxPoint x="280" y="-2260" />
              <mxPoint x="280" y="-2260" />
            </Array>
          </mxGeometry>
        </mxCell>
      </root>
    </mxGraphModel>
  </diagram>
</mxfile>
